<svg width="60" height="46" viewBox="0 0 60 46" fill="none" xmlns="http://www.w3.org/2000/svg">
<path d="M0.844 0.839996C0.716 0.370664 2.87067 0.135998 7.308 0.135998C12.2147 0.135998 14.732 0.541331 14.86 1.352L17.996 28.296L24.78 1.032C24.9933 0.391998 26.6573 0.0719986 29.772 0.0719986C32.8867 0.0719986 34.5507 0.370665 34.764 0.967999L41.42 28.424L45.132 1.224C45.2173 0.754664 46.1987 0.434663 48.076 0.263996C49.9533 0.0933317 51.468 0.00799942 52.62 0.00799942C57.1 0.00799942 59.276 0.306666 59.148 0.903999L51.404 43.336C51.2333 43.976 50.0173 44.4453 47.756 44.744C45.4947 45.0427 43.66 45.192 42.252 45.192C36.9613 45.192 34.188 44.5947 33.932 43.4L29.58 25.8L24.844 43.336C24.6733 44.104 23.18 44.6587 20.364 45C18.9133 45.128 17.4627 45.192 16.012 45.192L11.916 45C9.1 44.7013 7.60667 44.168 7.436 43.4L0.844 0.839996Z" fill="#407BFF"/>
</svg>
