<svg width="109" height="87" viewBox="0 0 109 87" fill="none" xmlns="http://www.w3.org/2000/svg">
<path d="M54 81.0794C82.9407 81.0794 106.402 67.534 106.402 50.825C106.402 34.116 82.9407 20.5706 54 20.5706C25.0593 20.5706 1.59821 34.116 1.59821 50.825C1.59821 67.534 25.0593 81.0794 54 81.0794Z" fill="#D0D0D0"/>
<path d="M8.74161 39.9834L71.721 76.345L101.054 59.4094L38.0764 23.05L8.74161 39.9834Z" fill="#E0E0E0"/>
<path d="M14.1404 55.9796C16.5073 55.9796 18.426 54.8715 18.426 53.5046C18.426 52.1377 16.5073 51.0296 14.1404 51.0296C11.7735 51.0296 9.8548 52.1377 9.8548 53.5046C9.8548 54.8715 11.7735 55.9796 14.1404 55.9796Z" fill="#E0E0E0"/>
<path d="M77.7666 36.7318C83.2938 36.7318 87.7744 34.1453 87.7744 30.9546C87.7744 27.7639 83.2938 25.1774 77.7666 25.1774C72.2395 25.1774 67.7588 27.7639 67.7588 30.9546C67.7588 34.1453 72.2395 36.7318 77.7666 36.7318Z" fill="#E0E0E0"/>
<path d="M86.6869 29.4203C91.6133 24.494 91.6133 16.5067 86.6869 11.5803C81.7606 6.65394 73.7733 6.65394 68.8469 11.5803C63.9205 16.5067 63.9205 24.494 68.8469 29.4203C73.7733 34.3467 81.7606 34.3467 86.6869 29.4203Z" fill="#407BFF"/>
<path opacity="0.3" d="M86.6869 29.4203C91.6133 24.494 91.6133 16.5067 86.6869 11.5803C81.7606 6.65394 73.7733 6.65394 68.8469 11.5803C63.9205 16.5067 63.9205 24.494 68.8469 29.4203C73.7733 34.3467 81.7606 34.3467 86.6869 29.4203Z" fill="black"/>
<path opacity="0.1" d="M74.57 9.817C73.3908 10.3934 72.227 11.456 72.3392 12.7628C72.3878 13.1138 72.5054 13.4518 72.6851 13.7573C72.8648 14.0627 73.1032 14.3296 73.3864 14.5426C73.9551 14.9641 74.5773 15.3081 75.2366 15.5656L81.8762 18.4982C82.5172 18.8155 83.198 19.0449 83.9002 19.1802C84.2522 19.2452 84.6138 19.2384 84.9631 19.1602C85.3125 19.0819 85.6424 18.9338 85.933 18.7248C86.835 17.9988 86.923 16.6524 86.7052 15.515C85.6558 10.0458 79.4232 7.441 74.57 9.817Z" fill="white"/>
<g opacity="0.2">
<path d="M71.9542 10.7146C72.0752 11.3218 72.5922 11.8146 73.4084 12.0852C74.3168 12.3375 75.2718 12.3721 76.196 12.1864C77.1202 12.0006 77.9877 11.5996 78.728 11.016C79.3748 10.4484 79.663 9.79941 79.542 9.19001C79.4298 8.63341 78.9832 8.18021 78.2836 7.89641C78.013 7.88541 77.7424 7.88321 77.4696 7.89641C77.6553 7.92934 77.8384 7.97566 78.0174 8.03501C78.7544 8.28361 79.2208 8.71261 79.3264 9.24061C79.432 9.76861 79.168 10.3406 78.5828 10.8576C77.3398 11.9576 75.0496 12.413 73.4788 11.8828C72.7396 11.6342 72.2754 11.2052 72.1588 10.6772C72.0422 10.1492 72.315 9.57721 72.9002 9.06021C73.0831 8.90069 73.2805 8.75854 73.4898 8.63561C73.2192 8.73021 72.9552 8.83801 72.6956 8.95021C72.1038 9.50021 71.8354 10.125 71.9542 10.7146Z" fill="black"/>
<path d="M89.0856 14.9254C89.1054 14.965 89.123 15.0046 89.1428 15.042L89.0856 14.9254Z" fill="black"/>
<path d="M89.7346 24.48C89.2333 25.3582 88.5834 26.1427 87.814 26.7988C83.7 30.42 76.1276 31.9446 70.94 30.2C69.9757 29.8918 69.0726 29.4175 68.2714 28.7986C68.5024 29.0648 68.7444 29.3178 68.9952 29.562C69.5891 29.9076 70.2173 30.1907 70.8696 30.4068C73.5096 31.2868 76.7326 31.3528 79.8258 30.7302C82.919 30.1076 85.8802 28.8074 87.9658 26.9748C88.4836 26.5237 88.9533 26.0202 89.3672 25.4722C89.4992 25.14 89.6224 24.8188 89.7346 24.48Z" fill="black"/>
<path d="M87.5126 23.0214C83.183 26.834 75.2146 28.4334 69.752 26.5876C67.6752 25.888 66.2056 24.7792 65.495 23.402C65.5522 23.6506 65.616 23.897 65.6886 24.139C66.5136 25.272 67.8754 26.1872 69.6816 26.7966C72.447 27.7294 75.8416 27.7932 79.0998 27.1398C82.358 26.4864 85.4666 25.1158 87.6578 23.1798C89.09 21.9192 89.992 20.5398 90.3132 19.1824C90.2868 18.9338 90.2516 18.683 90.2098 18.4344C90.08 19.9854 89.156 21.576 87.5126 23.0214Z" fill="black"/>
<path d="M90.3682 21.1448C90.3682 21.1954 90.3682 21.246 90.3572 21.2966C90.3616 21.246 90.3638 21.1954 90.3682 21.1448Z" fill="black"/>
<path d="M69.6992 19.1846C72.007 19.9634 74.8428 20.0162 77.5598 19.4706C80.2768 18.925 82.875 17.7832 84.7032 16.1706C86.2124 14.8506 87.0176 13.3634 87.0308 11.9334C86.956 11.852 86.879 11.775 86.8108 11.698C86.89 13.1346 86.1112 14.646 84.5668 16.0056C80.9522 19.1802 74.3192 20.52 69.7696 18.98C67.8182 18.32 66.5158 17.231 66.0296 15.8736C65.99 15.9748 65.9482 16.076 65.9108 16.1794C66.4806 17.4884 67.7918 18.54 69.6992 19.1846Z" fill="black"/>
<path d="M65.22 19.3056C65.7722 20.9072 67.2902 22.1876 69.5562 22.951C72.1324 23.831 75.3004 23.8816 78.3342 23.2722C81.368 22.6628 84.2742 21.3868 86.3114 19.5872C88.1088 18.0076 89.0108 16.2388 88.9008 14.547C88.8084 14.3754 88.7138 14.206 88.6126 14.0388C88.9646 15.812 88.0956 17.7238 86.1662 19.4244C82.1336 22.9708 74.713 24.4602 69.6266 22.7442C67.189 21.9214 65.649 20.4958 65.2882 18.727C65.2596 18.9184 65.2376 19.1098 65.2178 19.3034L65.22 19.3056Z" fill="black"/>
<path d="M65.165 19.9084C65.165 19.827 65.165 19.7456 65.1804 19.6642C65.1738 19.7456 65.1694 19.827 65.165 19.9084Z" fill="black"/>
<path d="M70.7816 15.4116C72.5416 16.0078 74.713 16.0474 76.7898 15.6316C78.8666 15.2158 80.851 14.3424 82.248 13.1126C83.5152 11.995 84.1334 10.741 84.019 9.5486C83.9376 9.5024 83.8606 9.4562 83.7792 9.4122C83.9618 10.5804 83.3722 11.8322 82.1028 12.9476C79.3594 15.3676 74.3126 16.373 70.852 15.2048C69.2504 14.6636 68.212 13.7396 67.9414 12.5934C67.8842 12.6638 67.827 12.7386 67.772 12.8134C68.1262 13.953 69.18 14.8726 70.7816 15.4116Z" fill="black"/>
<path d="M67.3034 13.4558C67.2726 13.4998 67.244 13.546 67.2132 13.5922L67.3034 13.4558Z" fill="black"/>
</g>
<path opacity="0.1" d="M74.5524 27.7228C67.0372 24.8364 65.9152 19.2946 66.5092 14.8242C65.678 16.4737 65.2191 18.2856 65.1651 20.1319C65.111 21.9782 65.4631 23.8138 66.1963 25.5091C66.9296 27.2044 68.0263 28.718 69.4088 29.9429C70.7913 31.1678 72.4259 32.0742 74.1971 32.598C75.9684 33.1218 77.8331 33.2503 79.6594 32.9743C81.4858 32.6983 83.2292 32.0246 84.7666 31.0007C86.304 29.9769 87.5978 28.628 88.5566 27.0493C89.5154 25.4705 90.1158 23.7005 90.3154 21.8642C89.7346 25.7274 82.061 30.607 74.5524 27.7228Z" fill="black"/>
<path d="M8.74161 38.4016L71.721 74.7632L101.054 57.8276L38.0764 21.466L8.74161 38.4016Z" fill="#407BFF"/>
<path opacity="0.8" d="M8.74161 38.4016L71.721 74.7632L101.054 57.8276L38.0764 21.466L8.74161 38.4016Z" fill="white"/>
<path opacity="0.05" d="M74.46 62.21C75.12 62.3332 75.8482 62.3244 76.44 62.65C76.8297 62.9134 77.1976 63.2076 77.54 63.53C78.6144 64.531 80.0316 65.0821 81.5 65.07C82.8904 65.103 86.1046 64.19 86.12 62.3794C86.1354 61.253 84.8792 60.6194 83.8364 60.1794C77.9029 57.7511 72.7012 53.8244 68.74 48.7834C67.2682 46.9024 65.913 44.8234 63.8582 43.6002C62.5492 42.8236 61.0444 42.4584 59.5748 42.0602C51.5528 39.8942 43.8964 36.5505 36.8554 32.1382C38.1576 29.572 39.0626 26.8229 39.5394 23.985C37.8278 23.3866 36.1712 24.865 34.4794 25.525C33.1594 26.042 31.8394 26.0244 30.5194 25.8198L24.9138 29.056C25.147 29.8788 25.521 30.6796 25.7762 31.5002C26.1678 32.7498 26.2162 34.2964 25.2328 35.1698C24.6718 35.6714 23.8952 35.8298 23.156 35.9816L20.076 36.5932C19.196 36.767 18.1796 37.0464 17.8364 37.8758C17.4162 38.89 18.3094 39.9724 19.2466 40.5466C20.9912 41.618 23.0702 41.9634 24.993 42.6652C29.5008 44.3086 33.0296 47.8572 37.2272 50.1804C40.145 51.7938 43.3592 52.7996 46.6762 53.1372C50.1016 53.487 53.593 53.1174 56.97 53.7752C59.6254 54.2922 62.327 55.0182 64.9296 55.8014C66.3447 56.201 67.7002 56.7877 68.96 57.546C69.5877 57.9345 70.1699 58.392 70.6958 58.91C71.1996 59.4138 71.5428 60.0672 71.985 60.6282C72.6648 61.5104 73.4128 62.012 74.46 62.21Z" fill="black"/>
<path d="M8.74161 38.4016V38.9736L71.721 75.333V74.7632L8.74161 38.4016Z" fill="#407BFF"/>
<path opacity="0.6" d="M8.74161 38.4016V38.9736L71.721 75.333V74.7632L8.74161 38.4016Z" fill="white"/>
<path d="M71.721 74.7632L101.054 57.8276V58.3996L71.721 75.333V74.7632Z" fill="#407BFF"/>
<path opacity="0.45" d="M71.721 74.7632L101.054 57.8276V58.3996L71.721 75.333V74.7632Z" fill="white"/>
<path d="M17.1566 48.218C17.033 47.7697 16.865 47.3349 16.655 46.92C16.6352 46.8738 16.611 46.8276 16.5868 46.7792C16.387 46.3917 16.2859 45.9609 16.2925 45.5249C16.299 45.089 16.4129 44.6614 16.6242 44.28C16.6374 44.2536 16.6528 44.2272 16.6682 44.2008C16.9278 43.7582 17.0617 43.2531 17.0554 42.74C17.0399 42.4568 16.9552 42.1818 16.8086 41.939C16.6621 41.6962 16.4583 41.4931 16.215 41.3474C16.0896 41.2756 15.9595 41.2124 15.8256 41.1582C15.7012 41.1102 15.5943 41.0257 15.5189 40.9157C15.4435 40.8057 15.4031 40.6755 15.4032 40.5422V39.7788H12.9634V40.54C12.9631 40.6738 12.9221 40.8044 12.8459 40.9144C12.7697 41.0245 12.6618 41.1087 12.5366 41.156C12.4016 41.2078 12.2707 41.2695 12.145 41.3408C11.9008 41.4849 11.6955 41.6865 11.5471 41.928C11.3987 42.1696 11.3117 42.4438 11.2936 42.7268C11.2827 43.2432 11.4128 43.7528 11.6698 44.2008C11.683 44.2272 11.6984 44.2514 11.7116 44.2756C11.9205 44.6599 12.0316 45.0897 12.0351 45.5271C12.0385 45.9645 11.9342 46.3961 11.7314 46.7836C11.7072 46.8298 11.6852 46.876 11.6632 46.9222C11.4498 47.3346 11.2781 47.7672 11.1506 48.2136C11.0635 48.648 11.0237 49.0906 11.0318 49.5336L11.0186 53.0844C11.0186 53.5442 11.3178 54.0062 11.925 54.3582C12.4672 54.6558 13.0678 54.8315 13.685 54.873C13.9778 54.8971 14.2721 54.8971 14.565 54.873C15.1808 54.8337 15.781 54.6627 16.325 54.3714C16.9344 54.0238 17.2402 53.564 17.2424 53.1042V50.5368C17.2424 50.2178 17.2578 49.8768 17.2578 49.549C17.274 49.1029 17.2401 48.6565 17.1566 48.218Z" fill="#407BFF"/>
<path opacity="0.3" d="M17.1566 48.218C17.033 47.7697 16.865 47.3349 16.655 46.92C16.6352 46.8738 16.611 46.8276 16.5868 46.7792C16.387 46.3917 16.2859 45.9609 16.2925 45.5249C16.299 45.089 16.4129 44.6614 16.6242 44.28C16.6374 44.2536 16.6528 44.2272 16.6682 44.2008C16.9278 43.7582 17.0617 43.2531 17.0554 42.74C17.0399 42.4568 16.9552 42.1818 16.8086 41.939C16.6621 41.6962 16.4583 41.4931 16.215 41.3474C16.0896 41.2756 15.9595 41.2124 15.8256 41.1582C15.7012 41.1102 15.5943 41.0257 15.5189 40.9157C15.4435 40.8057 15.4031 40.6755 15.4032 40.5422V39.7788H12.9634V40.54C12.9631 40.6738 12.9221 40.8044 12.8459 40.9144C12.7697 41.0245 12.6618 41.1087 12.5366 41.156C12.4016 41.2078 12.2707 41.2695 12.145 41.3408C11.9008 41.4849 11.6955 41.6865 11.5471 41.928C11.3987 42.1696 11.3117 42.4438 11.2936 42.7268C11.2827 43.2432 11.4128 43.7528 11.6698 44.2008C11.683 44.2272 11.6984 44.2514 11.7116 44.2756C11.9205 44.6599 12.0316 45.0897 12.0351 45.5271C12.0385 45.9645 11.9342 46.3961 11.7314 46.7836C11.7072 46.8298 11.6852 46.876 11.6632 46.9222C11.4498 47.3346 11.2781 47.7672 11.1506 48.2136C11.0635 48.648 11.0237 49.0906 11.0318 49.5336L11.0186 53.0844C11.0186 53.5442 11.3178 54.0062 11.925 54.3582C12.4672 54.6558 13.0678 54.8315 13.685 54.873C13.9778 54.8971 14.2721 54.8971 14.565 54.873C15.1808 54.8337 15.781 54.6627 16.325 54.3714C16.9344 54.0238 17.2402 53.564 17.2424 53.1042V50.5368C17.2424 50.2178 17.2578 49.8768 17.2578 49.549C17.274 49.1029 17.2401 48.6565 17.1566 48.218Z" fill="black"/>
<path opacity="0.1" d="M16.6242 44.28C16.6374 44.2536 16.6528 44.2272 16.6682 44.2008C16.8863 43.8215 17.0136 43.3968 17.04 42.96C16.9878 43.1364 16.9139 43.3056 16.82 43.4638C16.52 43.9053 16.1482 44.2935 15.72 44.6122C15.302 44.9532 14.84 45.3404 14.7872 45.8772C14.7344 46.414 15.1018 46.8694 15.5198 47.184C15.9378 47.4986 16.424 47.7186 16.8002 48.0838C16.9602 48.2449 17.1026 48.4226 17.2248 48.614C17.2103 48.4824 17.189 48.3517 17.161 48.2224C17.0363 47.7724 16.8668 47.3361 16.655 46.92C16.6352 46.8738 16.611 46.8276 16.5868 46.7792C16.387 46.3917 16.2859 45.9608 16.2924 45.5249C16.299 45.089 16.4129 44.6614 16.6242 44.28Z" fill="black"/>
<path d="M12.552 40.6104V41.0196C12.5646 41.1658 12.6159 41.306 12.7005 41.4259C12.7852 41.5457 12.9002 41.6409 13.0338 41.7016C13.3975 41.8849 13.7991 41.9805 14.2064 41.9805C14.6137 41.9805 15.0153 41.8849 15.379 41.7016C15.5222 41.6245 15.6462 41.5162 15.742 41.3848C15.8199 41.2813 15.863 41.1557 15.8652 41.0262V40.6104C15.8653 40.5733 15.8609 40.5364 15.852 40.5004C15.8198 40.3772 15.7612 40.2624 15.6803 40.164C15.5994 40.0656 15.4981 39.986 15.3834 39.9306L15.3592 39.9174C14.9986 39.7383 14.6014 39.6451 14.1987 39.6451C13.796 39.6451 13.3988 39.7383 13.0382 39.9174C12.9236 39.9722 12.8219 40.0507 12.74 40.1478C12.658 40.245 12.5977 40.3584 12.563 40.4806C12.5553 40.5234 12.5516 40.5669 12.552 40.6104Z" fill="#407BFF"/>
<path opacity="0.1" d="M12.552 40.6104V41.0196C12.5646 41.1658 12.6159 41.306 12.7005 41.4259C12.7852 41.5457 12.9002 41.6409 13.0338 41.7016C13.3975 41.8849 13.7991 41.9805 14.2064 41.9805C14.6137 41.9805 15.0153 41.8849 15.379 41.7016C15.5222 41.6245 15.6462 41.5162 15.742 41.3848C15.8199 41.2813 15.863 41.1557 15.8652 41.0262V40.6104C15.8653 40.5733 15.8609 40.5364 15.852 40.5004C15.8198 40.3772 15.7612 40.2624 15.6803 40.164C15.5994 40.0656 15.4981 39.986 15.3834 39.9306L15.3592 39.9174C14.9986 39.7383 14.6014 39.6451 14.1987 39.6451C13.796 39.6451 13.3988 39.7383 13.0382 39.9174C12.9236 39.9722 12.8219 40.0507 12.74 40.1478C12.658 40.245 12.5977 40.3584 12.563 40.4806C12.5553 40.5234 12.5516 40.5669 12.552 40.6104Z" fill="black"/>
<path opacity="0.2" d="M15.379 41.2924C16.039 40.9228 16.039 40.3156 15.379 39.9416C15.0167 39.756 14.6158 39.6584 14.2088 39.6565C13.8018 39.6546 13.4 39.7485 13.036 39.9306C12.3892 40.3024 12.376 40.9074 13.036 41.2836C13.3983 41.4693 13.7993 41.5669 14.2064 41.5684C14.6136 41.57 15.0153 41.4754 15.379 41.2924Z" fill="black"/>
<path d="M12.5542 40.1308V40.3772C12.5498 40.4159 12.5498 40.455 12.5542 40.4938C12.5872 40.6164 12.6464 40.7305 12.7277 40.8281C12.8089 40.9257 12.9104 41.0045 13.025 41.0592C13.3436 41.2326 13.6986 41.3283 14.0612 41.3386C14.5142 41.3718 14.9675 41.2781 15.3702 41.068C15.5163 40.9936 15.6447 40.8886 15.7464 40.76C15.7997 40.6874 15.8365 40.6041 15.8542 40.5158C15.864 40.4785 15.8684 40.44 15.8674 40.4014V40.1484C15.8546 40.0025 15.8033 39.8627 15.7186 39.7432C15.6339 39.6237 15.519 39.529 15.3856 39.4686L15.2976 39.4202C14.9424 39.2574 14.5552 39.1764 14.1645 39.1832C13.7738 39.1901 13.3897 39.2846 13.0404 39.4598C12.9072 39.5186 12.7921 39.6117 12.7067 39.7296C12.6212 39.8475 12.5686 39.9859 12.5542 40.1308Z" fill="#407BFF"/>
<path opacity="0.1" d="M12.5542 40.1308V40.3772C12.5498 40.4159 12.5498 40.455 12.5542 40.4938C12.5872 40.6164 12.6464 40.7305 12.7277 40.8281C12.8089 40.9257 12.9104 41.0045 13.025 41.0592C13.3436 41.2326 13.6986 41.3283 14.0612 41.3386C14.5142 41.3718 14.9675 41.2781 15.3702 41.068C15.5163 40.9936 15.6447 40.8886 15.7464 40.76C15.7997 40.6874 15.8365 40.6041 15.8542 40.5158C15.864 40.4785 15.8684 40.44 15.8674 40.4014V40.1484C15.8546 40.0025 15.8033 39.8627 15.7186 39.7432C15.6339 39.6237 15.519 39.529 15.3856 39.4686L15.2976 39.4202C14.9424 39.2574 14.5552 39.1764 14.1645 39.1832C13.7738 39.1901 13.3897 39.2846 13.0404 39.4598C12.9072 39.5186 12.7921 39.6117 12.7067 39.7296C12.6212 39.8475 12.5686 39.9859 12.5542 40.1308Z" fill="black"/>
<path d="M12.5542 40.122C12.5542 40.65 13.2934 41.079 14.2086 41.0812C15.1238 41.0834 15.8674 40.661 15.8696 40.1352C15.8718 39.6094 15.1304 39.1804 14.2152 39.176C13.3 39.1716 12.5564 39.5962 12.5542 40.122Z" fill="#407BFF"/>
<path d="M13.641 39.1452V40.0032C13.639 40.017 13.639 40.0311 13.641 40.045C13.6526 40.0873 13.6731 40.1267 13.7012 40.1605C13.7293 40.1943 13.7643 40.2216 13.8038 40.2408C13.9143 40.3001 14.037 40.3332 14.1624 40.3376C14.3193 40.3482 14.4761 40.3155 14.6156 40.243C14.6649 40.2158 14.7076 40.1783 14.741 40.133C14.76 40.1082 14.7735 40.0797 14.7806 40.0494C14.7817 40.0362 14.7817 40.023 14.7806 40.0098V39.1496C14.7763 39.099 14.7586 39.0504 14.7292 39.009C14.6998 38.9676 14.6598 38.9349 14.6134 38.9142L14.5826 38.8966C14.4596 38.8406 14.3257 38.8127 14.1906 38.815C14.0555 38.8173 13.9226 38.8497 13.8016 38.9098C13.7567 38.9317 13.7183 38.965 13.6902 39.0063C13.662 39.0475 13.6451 39.0954 13.641 39.1452Z" fill="#407BFF"/>
<path opacity="0.1" d="M13.641 39.1452V40.0032C13.639 40.017 13.639 40.0311 13.641 40.045C13.6526 40.0873 13.6731 40.1267 13.7012 40.1605C13.7293 40.1943 13.7643 40.2216 13.8038 40.2408C13.9143 40.3001 14.037 40.3332 14.1624 40.3376C14.3193 40.3482 14.4761 40.3155 14.6156 40.243C14.6649 40.2158 14.7076 40.1783 14.741 40.133C14.76 40.1082 14.7735 40.0797 14.7806 40.0494C14.7817 40.0362 14.7817 40.023 14.7806 40.0098V39.1496C14.7763 39.099 14.7586 39.0504 14.7292 39.009C14.6998 38.9676 14.6598 38.9349 14.6134 38.9142L14.5826 38.8966C14.4596 38.8406 14.3257 38.8127 14.1906 38.815C14.0555 38.8173 13.9226 38.8497 13.8016 38.9098C13.7567 38.9317 13.7183 38.965 13.6902 39.0063C13.662 39.0475 13.6451 39.0954 13.641 39.1452Z" fill="black"/>
<path d="M13.641 39.143C13.641 39.3256 13.8962 39.473 14.2152 39.4752C14.5342 39.4774 14.7894 39.33 14.7894 39.1474C14.7894 38.9648 14.5342 38.8152 14.2174 38.8152C13.9006 38.8152 13.6432 38.9604 13.641 39.143Z" fill="#407BFF"/>
<path opacity="0.5" d="M14.0128 39.1452C14.0128 39.209 14.103 39.2618 14.2152 39.2618C14.3274 39.2618 14.4198 39.2112 14.4198 39.1452C14.4198 39.0792 14.3296 39.0286 14.2152 39.0286C14.1008 39.0286 14.0128 39.0792 14.0128 39.1452Z" fill="#407BFF"/>
<path opacity="0.3" d="M14.0128 39.1452C14.0128 39.209 14.103 39.2618 14.2152 39.2618C14.3274 39.2618 14.4198 39.2112 14.4198 39.1452C14.4198 39.0792 14.3296 39.0286 14.2152 39.0286C14.1008 39.0286 14.0128 39.0792 14.0128 39.1452Z" fill="black"/>
<path d="M41.856 33.1216C41.856 33.1216 43.3762 20.7664 43.0308 16.2542C42.8548 13.942 41.7372 13.4162 40.0256 13.5482C38.314 13.6802 28.524 18.8832 28.524 18.8832L29.91 22.2492L38.0654 19.6906C38.0654 19.6906 37.236 24.4976 37.0446 25.4106C36.8532 26.3236 36.4506 27.5534 36.1338 28.6556C35.9776 29.1968 35.7598 29.903 35.7598 30.244C35.7598 31.0492 41.856 33.1216 41.856 33.1216Z" fill="#FFA8A7"/>
<path d="M38.0654 19.6906C39.1984 19.4706 40.3336 18.8106 40.69 18.2672C40.5056 18.8683 40.0999 19.3771 39.5548 19.6906C39.0373 20.0249 38.4893 20.3092 37.918 20.5398L38.0654 19.6906Z" fill="#F28F8F"/>
<path d="M57.2648 32.9038C57.0932 32.2746 55.9888 31.6124 52.6976 31.058C49.4064 30.5036 46.4122 31.058 46.3968 31.4474C46.3814 31.8368 47.2086 34.4416 51.0014 34.9146C54.7942 35.3876 57.6124 34.2832 57.2648 32.9038Z" fill="#263238"/>
<path d="M47.3648 38.252C47.3648 38.252 45.2198 24.337 45.5278 21.4968C45.8468 18.562 46.96 17.2002 48.8278 17.0088C51.2676 18.4278 52.5678 21.8136 54.1276 25.1488C55.6874 28.484 57.3792 35.645 57.4672 39.066C57.5552 42.487 54.8536 44.9224 51.7868 45.369C48.72 45.8156 47.3648 38.252 47.3648 38.252Z" fill="#FFA8A7"/>
<path d="M50.7352 27.3598C49.7444 26.5639 49.0755 25.4362 48.852 24.1852L51.9122 23.1182L53.9824 24.8408C54.0022 24.8848 54.022 24.9288 54.044 24.9728L54.1232 25.1466C54.1826 25.272 54.242 25.4062 54.3014 25.5448L54.3542 25.6636L54.4906 25.9936L54.5368 26.108C54.5962 26.262 54.6578 26.416 54.7172 26.5788C54.7766 26.7394 54.8382 26.9044 54.8976 27.0738C54.8976 27.109 54.9218 27.1464 54.935 27.1816C54.9878 27.3334 55.0406 27.4852 55.0934 27.6436C55.0934 27.6656 55.1088 27.6876 55.1154 27.7118C55.2408 28.0836 55.3618 28.4708 55.4828 28.869L55.5026 28.9328C55.5598 29.1286 55.6192 29.3266 55.6764 29.5246C55.6764 29.5246 52.834 29.1154 50.7352 27.3598Z" fill="#F28F8F"/>
<path d="M48.1898 17.1298C49.3536 16.6678 50.7748 17.7458 51.525 18.2298C53.0474 19.2066 62.371 26.471 64.5446 28.1738C65.0154 28.4576 65.495 28.7326 65.9834 28.9922L63.4226 32.9962C63.2118 32.4205 62.8819 31.8958 62.4546 31.4562C60.1314 29.7974 55.6346 28.8932 52.7394 27.7668C50.4888 26.8868 50.018 26.394 49.2568 25.107C48.6672 24.0972 46.5706 17.891 48.1898 17.1298Z" fill="#FFA8A7"/>
<path d="M47.3164 38.3268L46.3968 31.4474C46.3968 31.4474 47.2218 33.346 51.481 33.8432C55.7402 34.3404 57.3726 33.6232 57.2648 32.9038C57.2648 32.9038 58.378 37.2092 57.9468 40.0098C57.5156 42.8104 53.2454 45.787 53.2454 45.787L47.3164 38.3268Z" fill="#37474F"/>
<path opacity="0.15" d="M49.2018 39.2618C48.8124 39.2618 48.445 39.286 48.1018 39.308L52.8362 45.2656H53.9362C55.1616 44.2888 57.6256 42.0998 57.9468 40.0098C58.2614 37.9572 57.7488 35.0972 57.4518 33.7156C57.6212 35.2996 54.0704 39.1672 49.2018 39.2618Z" fill="black"/>
<path d="M70.5264 23.1732C68.9864 22.8872 68.2714 23.996 67.7016 24.9134C67.1318 25.8308 66.1836 27.5138 65.7612 27.7998C65.3388 28.0858 65.1012 27.7998 64.494 28.2552C63.8868 28.7106 63.4468 29.5752 63.6338 29.8898L64.0738 30.6532C63.8209 30.6268 63.5653 30.6598 63.3273 30.7496C63.0894 30.8393 62.8757 30.9833 62.7032 31.1702C62.0432 31.8302 62.3864 31.9424 62.7582 32.3142C63.13 32.686 64.0034 34.3778 64.879 34.8398C64.879 34.8398 67.2352 34.1314 68.9468 31.4584C70.6584 28.7854 70.5264 23.1732 70.5264 23.1732Z" fill="#407BFF"/>
<path d="M65.3608 35.194C65.2705 35.1777 65.1846 35.1428 65.1086 35.0915C65.0326 35.0402 64.9681 34.9736 64.9192 34.896C64.8704 34.8184 64.8383 34.7314 64.8249 34.6407C64.8115 34.5499 64.8172 34.4574 64.8416 34.369C65.1042 33.5441 65.4971 32.7664 66.0054 32.0656C66.5994 31.2274 67.7082 29.6456 67.8952 28.7832C68.0822 27.9208 68.4848 25.4964 69.1426 24.4822C69.8004 23.468 70.4758 22.8828 71.3426 23.2084C72.2094 23.534 69.4726 30.0284 68.6696 31.1284C67.8666 32.2284 65.3608 35.194 65.3608 35.194Z" fill="#37474F"/>
<path d="M65.8668 35.0532C68.0338 33.8982 68.7488 32.774 69.3868 31.3132C70.0248 29.8524 71.523 28.4994 71.908 27.186C72.293 25.8726 72.337 22.5044 70.8476 23.3206C69.3582 24.1368 69.048 27.1486 68.3924 28.8888C67.7368 30.629 63.7416 36.1862 65.8668 35.0532Z" fill="#263238"/>
<path d="M52.8428 38.6172C53.835 38.4676 55.738 38.8768 57.4628 41.288C59.3174 43.8774 59.6628 48.3962 58.5012 48.768C58.5012 48.768 55.8018 48.449 53.9516 47.481C52.1014 46.513 48.9862 39.946 52.8428 38.6172Z" fill="#263238"/>
<path d="M84.4832 60.1684C81.6078 59.0398 79.2582 57.1016 77.2232 54.9324C75.5886 52.7082 68.575 43.1932 67.3562 41.8534C66.9162 41.3782 65.8756 40.1572 64.4302 39.8492C59.3108 38.7624 49.8376 38.9142 49.8376 38.9142L46.1944 38.3004L38.9344 45.1336C39.9354 46.1984 41.1938 47.129 43.0286 48.0882C44.8634 49.0474 46.8544 49.7382 49.5318 49.5116C54.8954 49.0584 58.1118 47.5426 60.985 46.8716C61.8166 46.678 62.679 46.4998 63.3324 47.8638C63.9858 49.2278 64.0386 49.9098 65.9724 51.3618C68.454 53.223 72.546 55.3042 74.3324 57.5218C74.6269 58.0653 74.8024 58.6652 74.8472 59.2818C75.0166 61.6182 76.979 61.1606 78.5608 62.177C79.421 62.7292 80.0634 63.4024 81.1018 63.6334C82.0473 63.8279 83.0241 63.8099 83.9618 63.5806C84.8044 63.3782 86.0166 62.771 86.4302 61.9482C86.9714 60.8548 85.306 60.494 84.4832 60.1684Z" fill="#FFA8A7"/>
<path d="M84.4832 60.1684C81.6078 59.0398 79.2582 57.1016 77.2232 54.9324C75.5886 52.7082 68.575 43.1932 67.3562 41.8534C66.9162 41.3782 65.8756 40.1572 64.4302 39.8492C59.3108 38.7624 49.8376 38.9142 49.8376 38.9142L46.1944 38.3004L38.9344 45.1336C39.9354 46.1984 41.1938 47.129 43.0286 48.0882C44.8634 49.0474 46.8544 49.7382 49.5318 49.5116C54.8954 49.0584 58.1118 47.5426 60.985 46.8716C61.8166 46.678 62.679 46.4998 63.3324 47.8638C63.9858 49.2278 64.0386 49.9098 65.9724 51.3618C68.454 53.223 72.546 55.3042 74.3324 57.5218C74.6269 58.0653 74.8024 58.6652 74.8472 59.2818C75.0166 61.6182 76.979 61.1606 78.5608 62.177C79.421 62.7292 80.0634 63.4024 81.1018 63.6334C82.0473 63.8279 83.0241 63.8099 83.9618 63.5806C84.8044 63.3782 86.0166 62.771 86.4302 61.9482C86.9714 60.8548 85.306 60.494 84.4832 60.1684Z" fill="#FFA8A7"/>
<path d="M65.8008 50.2552C65.2548 49.6515 64.8412 48.9404 64.5864 48.1674C64.3891 47.5229 64.1352 46.8971 63.8274 46.2974C62.9342 44.7574 57.0074 46.722 54.3828 47.5272C54.2354 47.7472 53.6216 48.4072 53.3994 48.955C56.5806 48.3082 58.8686 47.3622 60.974 46.8716C61.8056 46.678 62.668 46.4998 63.3214 47.8638C63.9748 49.2278 64.0276 49.9098 65.9614 51.3618C66.969 52.1164 68.245 52.9018 69.5232 53.7334C68.0932 52.6268 67.0152 51.5158 65.8008 50.2552Z" fill="#F28F8F"/>
<path d="M46.751 38.3004C46.751 38.3004 51.9606 38.5534 52.8428 38.6172C52.8428 38.6172 50.8848 39.1474 53.2696 43.9654C55.6544 48.7834 58.5034 48.7614 58.5034 48.7614C54.7634 49.956 52.8208 51.3002 48.0534 50.7414C42.3708 49.9208 38.9234 45.666 38.9234 45.666L46.751 38.3004Z" fill="#455A64"/>
<path opacity="0.15" d="M58.488 48.7614L58.3582 48.7504C57.9336 48.6998 56.673 48.4248 55.2562 46.9178C54.1365 47.2216 53.0001 47.4604 51.8528 47.6328C47.6046 48.2554 44.4146 47.5074 39.667 44.9752L38.9322 45.6638C40.8177 47.79 43.2367 49.3742 45.9392 50.253C46.1042 50.3058 46.2714 50.3542 46.443 50.4026C46.6036 50.4466 46.7642 50.4862 46.9292 50.5258L46.971 50.5368C47.1228 50.572 47.2768 50.6028 47.4308 50.6314L47.5122 50.649C47.6904 50.682 47.873 50.7128 48.0578 50.7392C48.3548 50.7744 48.643 50.803 48.9202 50.8228C49.1974 50.8426 49.4636 50.858 49.721 50.8646H50.1038H50.4712C50.8342 50.8646 51.1796 50.836 51.5118 50.803C51.7318 50.781 51.9518 50.7546 52.1718 50.7216C52.6797 50.6445 53.1828 50.5387 53.6788 50.4048C53.8724 50.352 54.0638 50.297 54.2552 50.2398C54.7326 50.0946 55.2034 49.9296 55.6874 49.7558L56.2748 49.5358C56.9678 49.2806 57.7004 49.0122 58.5188 48.7504L58.488 48.7614Z" fill="black"/>
<path d="M29.3402 31.74C27.2238 32.477 25.2218 33.7596 26.907 37.5216C29.3402 42.949 40.2962 48.9792 45.9304 50.2596C43.0704 45.9322 45.4508 41.3452 47.3164 38.3312L46.8258 34.6572C46.8258 34.6572 45.134 33.8454 42.3356 31.6806C39.5372 29.5158 38.38 28.9284 34.211 30.2C31.351 31.0624 29.3402 31.74 29.3402 31.74Z" fill="#407BFF"/>
<path opacity="0.05" d="M37.9114 44.0072C32.1518 40.7072 30.3412 37.768 28.0818 34.9454L26.6034 36.7516C26.643 36.8675 26.687 36.9863 26.7354 37.108V37.1278C26.786 37.2554 26.8388 37.383 26.8982 37.5172C27.963 39.891 30.658 42.3814 33.826 44.5396C34.2792 44.8476 34.7405 45.1483 35.2098 45.4416C35.4452 45.589 35.6806 45.732 35.916 45.8816C37.5291 46.8507 39.1981 47.7234 40.9144 48.4952C42.5247 49.2372 44.2012 49.8264 45.9216 50.2552C45.2946 49.3245 44.8759 48.2694 44.694 47.162C42.6942 46.5526 40.5492 45.5208 37.9114 44.0072Z" fill="black"/>
<path d="M27.7496 32.4726C27.7496 32.4726 20.6458 28.6754 19.5216 28.165L25.73 24.5152L24.41 21.0898C24.41 21.0898 15.17 24.3744 13.41 25.3182C12.4882 25.8154 12.09 26.229 12.09 26.9374C12.09 28.1166 13.2142 29.65 14.7696 30.9766C18.0828 33.7992 22.5752 36.426 26.9488 38.8372C27.952 39.5808 28.997 40.5158 28.997 40.5158C30.1586 41.0856 31.8306 35.7638 27.7496 32.4726Z" fill="#FFA8A7"/>
<path d="M34.4002 19.277C34.1805 18.7669 33.8624 18.3051 33.4643 17.918C33.0661 17.5308 32.5955 17.2259 32.0795 17.0206C31.5635 16.8152 31.012 16.7136 30.4567 16.7214C29.9014 16.7292 29.3531 16.8463 28.843 17.066C28.3329 17.2857 27.8711 17.6037 27.484 18.0019C27.0968 18.4001 26.7919 18.8706 26.5866 19.3867C26.3812 19.9027 26.2796 20.4541 26.2874 21.0094C26.2952 21.5648 26.4123 22.1131 26.632 22.6232C26.6628 22.6914 26.698 22.7574 26.731 22.8234L25.6552 25.1598L24.08 22.236C24.0801 22.0052 23.9948 21.7826 23.8404 21.6112C23.686 21.4397 23.4735 21.3315 23.244 21.3076C23.1277 21.298 23.0106 21.3121 22.9 21.3491C22.7893 21.386 22.6872 21.445 22.6 21.5226C22.5128 21.6001 22.4422 21.6946 22.3926 21.8002C22.343 21.9058 22.3153 22.0204 22.3112 22.137L23.5234 22.2404C23.2589 22.4179 23.056 22.6731 22.9426 22.9708C22.6522 23.7232 23.6554 25.2566 25.0018 26.603C25.0018 26.603 26.9048 29.2892 27.3646 29.6676C27.6623 29.8942 28.0354 29.9981 28.4074 29.958L28.5218 24.678C29.2945 25.095 30.1779 25.261 31.0493 25.1529C31.9207 25.0448 32.7367 24.668 33.3841 24.0748C34.0315 23.4816 34.4781 22.7015 34.6617 21.8429C34.8454 20.9842 34.7571 20.0897 34.409 19.2836L34.4002 19.277Z" fill="#263238"/>
<path d="M26.5924 26.0772C26.4164 26.3214 25.8796 26.0112 25.455 25.8308C25.0304 25.6504 23.8908 25.6416 23.8468 26.8538C23.8028 28.066 25.2944 29.0538 26.1502 28.9636C27.6242 28.8118 27.4702 27.8966 27.4702 27.8966L29.646 32.6816C32.1518 34.0566 36.8158 31.8962 34.0174 30.5388L33.3992 29.1132C33.9337 28.9691 34.4502 28.7654 34.9392 28.506C35.8192 27.9472 36.1052 26.9352 35.9512 25.7758C35.7004 23.9146 35.2912 22.4978 33.4982 19.3958C31.5182 16.0034 27.3382 17.759 25.708 20.1438C24.0778 22.5286 26.5924 26.0772 26.5924 26.0772Z" fill="#FFA8A7"/>
<path d="M26.764 26.4776C26.6452 26.5304 25.8664 25.9716 25.444 25.8308C24.872 25.6328 23.9458 22.027 23.9458 22.027C23.9458 22.027 23.1912 21.367 23.6048 20.1482C23.948 19.1538 25.2064 18.4916 26.0776 18.0516C27.6484 17.2574 29.404 16.351 30.1762 14.6878C30.2356 14.558 30.3258 14.4062 30.4688 14.404C30.5605 14.414 30.6448 14.4589 30.7042 14.5294C31.0656 14.9365 31.2699 15.4591 31.2806 16.0034C31.2806 16.0562 31.296 16.1178 31.3444 16.1332C31.3928 16.1486 31.4346 16.1068 31.4632 16.0716C31.6238 15.8765 31.7455 15.6525 31.8218 15.4116C31.9296 15.0838 32.4818 15.9176 32.5236 16.032C32.6534 16.3943 32.7093 16.7789 32.6882 17.1631C32.667 17.5474 32.5692 17.9235 32.4004 18.2694C32.0572 18.9558 31.3488 19.3848 30.7042 19.761C29.2632 20.6014 26.7992 21.4 26.456 21.4968C25.9896 21.6266 26.0776 22.093 26.3438 23.3646C26.588 24.48 27.16 26.295 26.764 26.4776Z" fill="#263238"/>
<path d="M33.3882 29.1132C33.3882 29.1132 30.8142 29.6588 29.8968 29.584C29.3603 29.5431 28.8484 29.3423 28.4272 29.0076C28.7271 29.3943 29.101 29.7174 29.5272 29.958C30.372 30.42 33.628 29.6808 33.628 29.6808L33.3882 29.1132Z" fill="#F28F8F"/>
<path d="M29.36 22.4164L28.5878 23.2502C28.4775 23.1429 28.4129 22.9972 28.4076 22.8434C28.4023 22.6897 28.4566 22.5398 28.5592 22.4252C28.6102 22.3703 28.6718 22.3264 28.7403 22.296C28.8088 22.2657 28.8828 22.2497 28.9577 22.2488C29.0326 22.248 29.1069 22.2624 29.1761 22.2913C29.2452 22.3201 29.3078 22.3626 29.36 22.4164Z" fill="#263238"/>
<path d="M31.8306 26.68L32.9636 26.625C32.9708 26.6997 32.9629 26.7751 32.9402 26.8467C32.9176 26.9182 32.8807 26.9844 32.8318 27.0414C32.7828 27.0983 32.7229 27.1447 32.6556 27.1779C32.5883 27.2111 32.5149 27.2303 32.44 27.2344C32.2864 27.2387 32.1372 27.1834 32.0236 27.08C31.9099 26.9766 31.8408 26.8333 31.8306 26.68Z" fill="#F28F8F"/>
<path d="M34.0262 21.0898L32.9262 20.806C32.9409 20.7329 32.9703 20.6635 33.0127 20.6021C33.0551 20.5408 33.1096 20.4887 33.1729 20.4492C33.2361 20.4096 33.3067 20.3834 33.3805 20.3721C33.4542 20.3609 33.5294 20.3648 33.6016 20.3836C33.7491 20.425 33.8752 20.5211 33.9541 20.6524C34.033 20.7837 34.0588 20.9401 34.0262 21.0898Z" fill="#263238"/>
<path d="M31.6788 22.8124L32.429 25.5118L33.7468 24.711L31.6788 22.8124Z" fill="#F28F8F"/>
<path d="M29.58 24.0202C29.5796 24.1182 29.6082 24.2141 29.6623 24.2958C29.7165 24.3775 29.7936 24.4413 29.884 24.4791C29.9744 24.5169 30.074 24.527 30.1702 24.5081C30.2664 24.4893 30.3548 24.4423 30.4242 24.3732C30.4937 24.304 30.541 24.2159 30.5603 24.1198C30.5796 24.0237 30.5699 23.9241 30.5325 23.8335C30.4951 23.7429 30.4317 23.6655 30.3502 23.611C30.2688 23.5565 30.173 23.5274 30.075 23.5274C29.9441 23.5274 29.8185 23.5792 29.7257 23.6716C29.633 23.7639 29.5806 23.8893 29.58 24.0202Z" fill="#263238"/>
<path d="M33.1572 22.6254C33.1572 22.7194 33.1851 22.8113 33.2373 22.8894C33.2895 22.9675 33.3637 23.0285 33.4505 23.0644C33.5374 23.1004 33.6329 23.1098 33.7251 23.0915C33.8173 23.0731 33.902 23.0279 33.9684 22.9614C34.0349 22.895 34.0801 22.8103 34.0985 22.7181C34.1168 22.6259 34.1074 22.5304 34.0714 22.4435C34.0355 22.3567 33.9745 22.2825 33.8964 22.2303C33.8183 22.1781 33.7264 22.1502 33.6324 22.1502C33.5064 22.1502 33.3855 22.2003 33.2964 22.2894C33.2073 22.3785 33.1572 22.4994 33.1572 22.6254Z" fill="#263238"/>
<path d="M74.5546 59.7724C74.3676 59.9 74.6558 60.7074 74.8252 60.9032C75.1773 61.2473 75.6135 61.4931 76.0902 61.616C76.9564 61.8826 77.7663 62.3062 78.4794 62.8656C79.3553 63.5778 80.3754 64.0912 81.4692 64.3704C82.7694 64.6586 84.2676 64.289 85.5788 63.5146C86.9516 62.7006 86.824 61.924 86.6348 61.4026L74.5546 59.7724Z" fill="#37474F"/>
<path d="M77.5246 55.2536C77.9646 55.7222 80.3582 58.0872 82.1952 58.6922C83.656 59.1718 85.5612 59.6272 86.3928 60.5204C87.2596 61.4488 85.9704 62.6368 84.1928 63.3166C82.3404 64.0272 81.082 63.453 79.8522 62.837C78.9876 62.397 77.7138 61.517 77.0736 61.1628C76.4334 60.8086 75.2476 60.6128 74.7526 60.087C74.4798 59.7988 74.284 58.987 74.1652 58.2786C74.0574 57.6186 73.6218 57.0202 73.844 56.985L74.2026 57.3788C75.879 57.7 77.6214 56.1446 77.5246 55.2536Z" fill="#407BFF"/>
<path d="M19.5216 28.165C18.4708 28.733 17.3359 29.1296 16.16 29.3398C16.16 29.3398 18.0256 29.8172 20.2564 28.5214L19.5216 28.165Z" fill="#F28F8F"/>
</svg>
