<svg width="97" height="83" viewBox="0 0 97 83" fill="none" xmlns="http://www.w3.org/2000/svg">
<path d="M47 75.0632C70.5581 75.0632 89.6558 73.9482 89.6558 72.5728C89.6558 71.1974 70.5581 70.0824 47 70.0824C23.4418 70.0824 4.34418 71.1974 4.34418 72.5728C4.34418 73.9482 23.4418 75.0632 47 75.0632Z" fill="#D0D0D0"/>
<path d="M43.7 24.9296C43.3466 24.7033 42.9178 24.6264 42.5078 24.7159C42.0978 24.8054 41.7401 25.054 41.5132 25.407L41.4648 25.484L41.3724 25.6292L41.2624 25.792C41.1898 25.9042 41.115 26.012 41.0424 26.1264C40.8884 26.3464 40.7322 26.5664 40.5694 26.7864C40.2542 27.2119 39.9156 27.6195 39.5552 28.0074C39.2212 28.3714 38.8528 28.7022 38.4552 28.9952C38.3606 29.0656 38.266 29.1294 38.1714 29.191C38.0966 29.0502 38.0218 28.8808 37.9514 28.7026C37.7599 28.1933 37.6012 27.6723 37.4762 27.1428C37.2078 26.0428 37.001 24.868 36.8052 23.7218V23.6954C36.7746 23.5054 36.6756 23.3331 36.527 23.2108C36.3783 23.0886 36.1901 23.0249 35.9977 23.0316C35.8053 23.0384 35.6221 23.1152 35.4823 23.2475C35.3426 23.3799 35.256 23.5587 35.2388 23.7504C35.1118 24.9976 35.0971 26.2537 35.1948 27.5036C35.2415 28.1633 35.3416 28.8181 35.494 29.4616C35.5809 29.828 35.7024 30.1853 35.857 30.5286C35.9515 30.7368 36.0641 30.9363 36.1936 31.1248C36.3642 31.3746 36.5771 31.5928 36.8228 31.7694C37.1574 32.0117 37.5544 32.1529 37.9668 32.1764C38.1689 32.1885 38.3717 32.173 38.5696 32.1302C38.6584 32.1121 38.7459 32.0879 38.8314 32.0576L38.9502 32.0158L39.0184 31.9916C39.3762 31.8575 39.7221 31.6934 40.0524 31.501C40.6639 31.139 41.2329 30.7095 41.7486 30.2206C42.2381 29.7591 42.6912 29.2604 43.1038 28.729C43.3062 28.4672 43.502 28.201 43.6868 27.9282C43.7792 27.7896 43.8694 27.651 43.9574 27.508L44.0872 27.288L44.2258 27.046C44.4253 26.6929 44.482 26.2768 44.3843 25.8831C44.2865 25.4895 44.0416 25.1483 43.7 24.9296Z" fill="#CE7A63"/>
<path d="M36.6138 24.065L37.8414 22.7824L35.4214 22.1576C35.4214 22.1576 34.394 23.3192 35.3466 24.3378L36.6138 24.065Z" fill="#CE7A63"/>
<path d="M36.803 25.3234L35.2278 25.4246C35.1714 25.4295 35.1146 25.4226 35.061 25.4042C35.0075 25.3858 34.9584 25.3563 34.9169 25.3178C34.8754 25.2792 34.8425 25.2324 34.8203 25.1803C34.7981 25.1282 34.787 25.072 34.7878 25.0154V24.3004C34.789 24.1836 34.8336 24.0714 34.9128 23.9856C34.9921 23.8998 35.1005 23.8466 35.2168 23.8362L36.7942 23.735C36.8498 23.7313 36.9056 23.7393 36.958 23.7583C37.0104 23.7773 37.0582 23.8069 37.0986 23.8454C37.1389 23.8839 37.1708 23.9303 37.1923 23.9817C37.2137 24.0332 37.2243 24.0885 37.2232 24.1442V24.8592C37.2228 24.9748 37.1796 25.0861 37.102 25.1718C37.0245 25.2575 36.918 25.3115 36.803 25.3234Z" fill="#263238"/>
<path d="M37.6038 21.4712L35.4214 21.5768V22.1576L37.8414 22.7824L37.6038 21.4712Z" fill="#CE7A63"/>
<path d="M41.4362 25.5016C41.3614 27.5608 41.8762 32.3084 45.5788 41.9026L57.1596 41.06C56.8824 39.4694 54.4492 32.6098 54.0796 25.0374C54.0312 24.0848 53.127 23.2774 52.082 23.2224C51.422 23.1938 50.6652 23.1784 49.9304 23.2048C48.2318 23.2452 46.5367 23.3789 44.8528 23.6052C44.0824 23.738 43.3201 23.9136 42.5692 24.131C42.2572 24.2056 41.978 24.3797 41.7736 24.6269C41.5692 24.8742 41.4508 25.1812 41.4362 25.5016Z" fill="#407BFF"/>
<path opacity="0.3" d="M47.88 29.378C47.8539 29.3783 47.8286 29.369 47.8087 29.3521C47.7889 29.3351 47.7759 29.3114 47.7722 29.2856C47.767 29.257 47.7734 29.2276 47.7899 29.2037C47.8064 29.1798 47.8316 29.1633 47.8602 29.158L49.8402 28.806C49.8694 28.8007 49.8994 28.8073 49.9238 28.8242C49.9481 28.8411 49.9647 28.867 49.97 28.8962C49.9752 28.9254 49.9687 28.9554 49.9518 28.9798C49.9349 29.0041 49.909 29.0207 49.8798 29.026L47.8998 29.378H47.88Z" fill="white"/>
<path opacity="0.3" d="M47.9152 29.84C47.886 29.8423 47.8571 29.833 47.8348 29.814C47.8125 29.795 47.7987 29.768 47.7964 29.7388C47.794 29.7096 47.8034 29.6807 47.8224 29.6584C47.8413 29.6362 47.8684 29.6223 47.8976 29.62L49.8776 29.268C49.8917 29.2655 49.9063 29.2659 49.9203 29.2691C49.9344 29.2723 49.9476 29.2782 49.9593 29.2866C49.971 29.2951 49.9809 29.3057 49.9884 29.318C49.9959 29.3303 50.0008 29.344 50.003 29.3582C50.0081 29.3868 50.0018 29.4162 49.9853 29.4401C49.9688 29.464 49.9435 29.4805 49.915 29.4858L47.935 29.8378L47.9152 29.84Z" fill="white"/>
<path opacity="0.3" d="M47.946 30.3196C47.9199 30.3199 47.8946 30.3106 47.8748 30.2937C47.8549 30.2767 47.842 30.253 47.8382 30.2272C47.8331 30.1986 47.8394 30.1692 47.8559 30.1453C47.8724 30.1214 47.8977 30.1049 47.9262 30.0996L49.9062 29.7498C49.9348 29.7447 49.9643 29.751 49.9882 29.7675C50.0121 29.784 50.0285 29.8093 50.0338 29.8378C50.0383 29.8666 50.0314 29.8961 50.0146 29.9199C49.9978 29.9437 49.9723 29.96 49.9436 29.9654L47.9636 30.3174L47.946 30.3196Z" fill="white"/>
<path opacity="0.3" d="M55.8792 41.2426C55.8534 41.2429 55.8284 41.234 55.8086 41.2175C55.7888 41.2009 55.7756 41.1778 55.7714 41.1524C55.7076 40.7828 55.525 40.1272 55.272 39.2208C54.469 36.3168 52.9686 30.9158 52.6804 25.1144C52.679 25.0852 52.6892 25.0567 52.7088 25.035C52.7284 25.0133 52.7558 25.0004 52.7849 24.9989C52.8141 24.9974 52.8427 25.0076 52.8643 25.0272C52.886 25.0468 52.899 25.0742 52.9004 25.1034C53.1886 30.8806 54.6824 36.2662 55.4854 39.1614C55.7384 40.0744 55.9254 40.7344 55.987 41.115C55.9922 41.1436 55.9858 41.173 55.9693 41.1969C55.9528 41.2208 55.9276 41.2373 55.899 41.2426H55.8792Z" fill="white"/>
<path opacity="0.4" d="M54.205 26.8678C53.1204 26.375 52.082 26.0692 52.225 26.8678C52.5868 28.6724 53.511 30.3159 54.865 31.5626C54.5856 30.0798 54.3546 28.5002 54.205 26.8678Z" fill="black"/>
<path d="M60.673 24.12L61.6124 22.602L59.0164 22.1092C59.0164 22.1092 58.253 23.4754 59.4564 24.5292L60.673 24.12Z" fill="#CE7A63"/>
<path d="M61.3374 21.381L59.1242 21.4184L59.0164 22.0982L61.6124 22.591L61.3374 21.381Z" fill="#CE7A63"/>
<path d="M24.5006 29.7146C22.7406 29.7146 21.3128 26.5136 21.3128 22.5646C21.3128 18.6156 22.7406 15.4168 24.5006 15.4168H25.6952V29.7168L24.5006 29.7146Z" fill="#407BFF"/>
<path d="M25.6952 29.7124C27.4558 29.7124 28.883 26.5122 28.883 22.5646C28.883 18.617 27.4558 15.4168 25.6952 15.4168C23.9346 15.4168 22.5074 18.617 22.5074 22.5646C22.5074 26.5122 23.9346 29.7124 25.6952 29.7124Z" fill="#407BFF"/>
<path opacity="0.2" d="M25.6952 29.7124C27.4558 29.7124 28.883 26.5122 28.883 22.5646C28.883 18.617 27.4558 15.4168 25.6952 15.4168C23.9346 15.4168 22.5074 18.617 22.5074 22.5646C22.5074 26.5122 23.9346 29.7124 25.6952 29.7124Z" fill="black"/>
<path d="M26.3684 29.7146C24.6084 29.7146 23.1806 26.5136 23.1806 22.5646C23.1806 18.6156 24.6084 15.4168 26.3684 15.4168H27.563V29.7168L26.3684 29.7146Z" fill="#407BFF"/>
<path d="M27.563 29.7124C29.3236 29.7124 30.7508 26.5122 30.7508 22.5646C30.7508 18.617 29.3236 15.4168 27.563 15.4168C25.8024 15.4168 24.3752 18.617 24.3752 22.5646C24.3752 26.5122 25.8024 29.7124 27.563 29.7124Z" fill="#407BFF"/>
<path opacity="0.2" d="M27.563 29.7124C29.3236 29.7124 30.7508 26.5122 30.7508 22.5646C30.7508 18.617 29.3236 15.4168 27.563 15.4168C25.8024 15.4168 24.3752 18.617 24.3752 22.5646C24.3752 26.5122 25.8024 29.7124 27.563 29.7124Z" fill="black"/>
<path opacity="0.2" d="M27.8358 22.7824L30.6232 24.56C30.7028 23.9508 30.7447 23.3373 30.7486 22.723L27.8358 22.7824Z" fill="black"/>
<path d="M69.2046 22.9562H28.0162C27.9123 22.9562 27.8127 22.9149 27.7393 22.8415C27.6658 22.7681 27.6246 22.6685 27.6246 22.5646C27.6246 22.4607 27.6658 22.3611 27.7393 22.2877C27.8127 22.2143 27.9123 22.173 28.0162 22.173H69.2046C69.3083 22.1736 69.4075 22.215 69.4808 22.2883C69.5542 22.3617 69.5956 22.4609 69.5962 22.5646C69.5956 22.6683 69.5542 22.7676 69.4808 22.8409C69.4075 22.9142 69.3083 22.9556 69.2046 22.9562Z" fill="#263238"/>
<path opacity="0.9" d="M49.9216 23.2048C48.223 23.2452 46.5279 23.3789 44.844 23.6052C44.6504 23.636 44.4568 23.6734 44.2698 23.7108C43.7748 24.7932 44.3534 26.4014 45.911 28.2164L46.3686 28.7488L46.648 28.1042C47.6446 25.8184 48.848 24.2586 50.1262 23.5942L50.9094 23.1938C50.5816 23.1894 50.2494 23.1938 49.9216 23.2048Z" fill="white"/>
<path d="M48.2342 17.938C48.2518 19.478 48.5532 22.283 49.9216 23.2048C48.4938 23.944 47.22 25.66 46.2432 27.9282C44.7846 26.2298 44.085 24.5446 44.844 23.6052C46.5754 23.0574 46.2498 21.8078 45.669 20.655L48.2342 17.938Z" fill="#CE7A63"/>
<path opacity="0.2" d="M47.1892 19.0468L45.669 20.6528C45.8075 20.9164 45.9224 21.1917 46.0122 21.4756C46.6876 21.3282 47.4862 20.545 47.4092 19.863C47.3871 19.5797 47.3125 19.3029 47.1892 19.0468Z" fill="black"/>
<path d="M43.084 13.637C42.4922 13.9626 41.9972 16.3166 43.3854 17.2252C44.7736 18.1338 44.404 12.9154 43.084 13.637Z" fill="#263238"/>
<path d="M48.8216 15.5048C48.7006 17.6564 48.7402 18.9214 47.66 20.0478C46.0342 21.744 43.3766 20.82 42.8508 18.686C42.38 16.7654 42.6572 13.5688 44.756 12.6646C45.2118 12.4604 45.7128 12.3778 46.21 12.4248C46.7073 12.4718 47.1839 12.6469 47.5934 12.933C48.0028 13.219 48.3312 13.6063 48.5464 14.057C48.7617 14.5077 48.8565 15.0065 48.8216 15.5048Z" fill="#CE7A63"/>
<path d="M43.3854 14.0638C41.4384 13.2828 39.8654 10.9222 40.9038 9.64841C42.2766 7.95001 43.8056 10.7726 48.2276 11.7824C51.8048 12.5964 50.4826 15.7116 49.2946 16.9612C48.5334 17.1636 47.8228 17.3264 47.8228 17.3264C47.8228 17.3264 47.0374 15.4652 47.8096 14.308C46.9758 14.572 44.7186 14.5984 43.3854 14.0638Z" fill="#263238"/>
<path d="M40.576 12.3016C40.576 12.3016 41.9884 14.0968 47.8096 14.308C45.24 15.0296 41.94 14.5984 40.576 12.3016Z" fill="#263238"/>
<path d="M44.9716 18.7322C44.9591 18.7306 44.9478 18.7241 44.94 18.7143C44.9322 18.7044 44.9286 18.6919 44.9298 18.6794C44.9309 18.6658 44.9373 18.6531 44.9475 18.6441C44.9578 18.6351 44.9712 18.6304 44.9848 18.631C45.2032 18.6464 45.4222 18.6109 45.6245 18.5273C45.8268 18.4437 46.007 18.3143 46.1508 18.1492C46.1549 18.1439 46.1599 18.1394 46.1657 18.136C46.1715 18.1326 46.1779 18.1304 46.1845 18.1294C46.1911 18.1285 46.1979 18.1289 46.2044 18.1306C46.2109 18.1323 46.217 18.1353 46.2223 18.1393C46.2277 18.1434 46.2321 18.1484 46.2355 18.1542C46.2389 18.16 46.2411 18.1664 46.2421 18.173C46.243 18.1796 46.2426 18.1864 46.2409 18.1929C46.2392 18.1994 46.2363 18.2055 46.2322 18.2108C46.0787 18.3906 45.8849 18.5318 45.6667 18.6227C45.4484 18.7137 45.2118 18.752 44.976 18.7344L44.9716 18.7322Z" fill="#263238"/>
<path d="M49.805 17.8522C49.5189 18.3169 49.0626 18.6516 48.5334 18.785C47.8338 18.9544 47.9284 18.433 48.1528 17.7884C48.3552 17.2054 48.5554 16.31 49.2528 16.4266C49.9502 16.5432 50.1504 17.2802 49.805 17.8522Z" fill="#CE7A63"/>
<path d="M45.5634 16.178C45.5634 16.354 45.4732 16.497 45.3588 16.4992C45.2444 16.5014 45.1498 16.3628 45.1498 16.1868C45.1498 16.0108 45.24 15.87 45.3544 15.8656C45.4688 15.8612 45.5634 16.0042 45.5634 16.178Z" fill="#263238"/>
<path d="M43.5306 16.222C43.5306 16.398 43.4404 16.541 43.326 16.5454C43.2116 16.5498 43.106 16.4068 43.106 16.233C43.106 16.0592 43.1962 15.914 43.3106 15.9096C43.425 15.9052 43.5306 16.0482 43.5306 16.222Z" fill="#263238"/>
<path d="M44.2148 16.2968C44.2148 16.2968 43.821 17.3132 43.3854 17.8104C43.6978 18.0942 44.2236 17.949 44.2236 17.949L44.2148 16.2968Z" fill="#BA4D3C"/>
<path d="M46.4412 15.2672C46.4276 15.2682 46.4139 15.2664 46.4011 15.2618C46.3882 15.2573 46.3764 15.2501 46.3664 15.2408C46.2774 15.1482 46.1672 15.0784 46.0455 15.0374C45.9237 14.9964 45.7938 14.9855 45.6668 15.0054C45.6538 15.0086 45.6403 15.0092 45.627 15.007C45.6138 15.0049 45.6011 15 45.5898 14.9928C45.5785 14.9856 45.5688 14.9762 45.5612 14.9651C45.5536 14.9541 45.5484 14.9416 45.5458 14.9284C45.5405 14.9016 45.5458 14.8738 45.5606 14.8508C45.5754 14.8279 45.5985 14.8115 45.625 14.8052C45.7839 14.7787 45.9468 14.7909 46.1 14.8407C46.2531 14.8905 46.3921 14.9764 46.505 15.0912C46.5241 15.1106 46.5348 15.1366 46.5348 15.1638C46.5348 15.191 46.5241 15.2171 46.505 15.2364C46.4883 15.2542 46.4656 15.2652 46.4412 15.2672Z" fill="#263238"/>
<path d="M43.48 15.21C43.4821 15.2209 43.4821 15.2321 43.48 15.243C43.4806 15.2566 43.4784 15.2701 43.4736 15.2828C43.4688 15.2954 43.4614 15.307 43.4519 15.3167C43.4424 15.3264 43.431 15.334 43.4184 15.3391C43.4059 15.3442 43.3924 15.3467 43.3788 15.3464C43.2146 15.352 43.0514 15.3189 42.9023 15.2497C42.7533 15.1805 42.6226 15.0772 42.5208 14.9482C42.513 14.9373 42.5075 14.925 42.5046 14.9119C42.5017 14.8988 42.5014 14.8853 42.5039 14.8722C42.5064 14.859 42.5115 14.8465 42.5189 14.8353C42.5264 14.8242 42.536 14.8147 42.5472 14.8074C42.5697 14.7921 42.5974 14.7863 42.6242 14.7912C42.6509 14.7962 42.6747 14.8115 42.6902 14.8338C42.7726 14.9346 42.8773 15.015 42.996 15.0684C43.1148 15.1219 43.2443 15.147 43.3744 15.1418C43.3969 15.1407 43.4193 15.1467 43.4382 15.1589C43.4571 15.1712 43.4718 15.189 43.48 15.21Z" fill="#263238"/>
<path d="M61.014 25.9592C60.936 25.3203 60.8147 24.6875 60.651 24.065C60.6019 23.8833 60.4897 23.725 60.3345 23.6185C60.1793 23.5119 59.9912 23.4642 59.804 23.4838C59.6168 23.5034 59.4426 23.5891 59.3128 23.7254C59.183 23.8617 59.106 24.0398 59.0956 24.2278V24.2608C59.0641 25.4027 58.945 26.5405 58.7392 27.6642C58.6885 27.9096 58.6216 28.1514 58.539 28.388C58.4898 28.5251 58.4287 28.6576 58.3564 28.784L58.3212 28.7664C57.92 28.5836 57.5461 28.3459 57.2102 28.0602C56.8061 27.7173 56.4233 27.3499 56.064 26.9602C55.6922 26.5554 55.3248 26.1308 54.964 25.6886C54.788 25.4686 54.6164 25.2486 54.4426 25.0286L54.1896 24.6898L53.9542 24.3686L53.9168 24.3158C53.6739 23.9804 53.3092 23.7535 52.901 23.6837C52.4928 23.6139 52.0735 23.7068 51.7329 23.9424C51.3924 24.178 51.1576 24.5376 51.0789 24.9442C51.0002 25.3507 51.0839 25.772 51.312 26.1176C51.4198 26.2826 51.5034 26.4058 51.598 26.5444C51.6926 26.683 51.7872 26.8106 51.884 26.9426C52.0754 27.2044 52.2778 27.4574 52.4824 27.7104C52.896 28.2192 53.3367 28.7053 53.8024 29.1668C54.0422 29.4 54.2886 29.6288 54.5482 29.851C54.8078 30.0732 55.0872 30.291 55.3776 30.4912C56.0064 30.9489 56.7088 31.2956 57.4544 31.5164C58.0485 31.7029 58.6883 31.6827 59.2694 31.4592C59.5827 31.3282 59.8658 31.1343 60.101 30.8894C60.2902 30.6928 60.4509 30.4707 60.5784 30.2294C60.7734 29.8514 60.9085 29.4455 60.9788 29.026C61.044 28.6722 61.0837 28.3141 61.0976 27.9546C61.1245 27.2883 61.0965 26.6209 61.014 25.9592Z" fill="#CE7A63"/>
<path d="M49.2 41.6386L45.581 41.9026C45.581 41.9026 32.8958 44.8462 33.3842 51.5298C33.712 56.0178 35.6194 63.2778 36.9284 67.8604H39.8984C39.7202 63.2778 40.0414 56.24 38.7984 51.653C40.7212 51.2988 47.3256 48.9382 49.6576 48.1594C50.2192 47.1444 50.4749 45.9885 50.3937 44.8313C50.3125 43.6741 49.8979 42.5652 49.2 41.6386Z" fill="#263238"/>
<path opacity="0.4" d="M44.9914 45.7482C42.4944 47.6446 42.149 50.0272 42.4944 50.5882C43.5944 50.2318 44.778 49.8292 45.8934 49.4464C45.9 48.111 46.0166 44.9716 44.9914 45.7482Z" fill="black"/>
<path d="M53.9828 41.291L49.2 41.6386L53.9828 41.2932V41.291Z" fill="#263238"/>
<path d="M57.1596 41.06L49.2 41.6386C49.2 41.6386 43.26 46.2278 43.4558 48.4586C43.5104 49.3411 43.6949 50.2107 44.0036 51.0392C45.603 55.294 48.7952 63.038 50.7444 67.856H53.765C52.8696 62.9082 51.8994 54.953 49.9238 51.356C52.0138 50.4232 54.8716 49.244 56.8406 47.7414C59.0494 46.0672 57.1596 41.06 57.1596 41.06Z" fill="#263238"/>
<path d="M38.1846 72.08L40.0414 72.113C40.0414 72.113 39.9952 70.3882 39.8984 67.856H36.9284C37.6456 70.375 38.1846 72.08 38.1846 72.08Z" fill="#CE7A63"/>
<path d="M37.7204 70.694L40.1404 70.7116C40.1839 70.7116 40.2259 70.7271 40.259 70.7553C40.2921 70.7836 40.314 70.8227 40.3208 70.8656L40.6222 72.8456C40.6288 72.895 40.6248 72.9452 40.6103 72.9929C40.5958 73.0405 40.5712 73.0845 40.5383 73.1219C40.5053 73.1592 40.4647 73.189 40.4192 73.2093C40.3737 73.2296 40.3244 73.2399 40.2746 73.2394C39.3946 73.2174 38.134 73.1558 37.034 73.147C35.7448 73.147 35.7778 73.1998 34.2664 73.1888C33.3534 73.1888 33.1664 72.2538 33.5514 72.1746C35.3114 71.8072 35.593 71.7764 37.1638 70.8546C37.3307 70.7501 37.5235 70.6945 37.7204 70.694Z" fill="#263238"/>
<path d="M52.4538 72.08L54.4998 72.113C54.4998 72.113 54.2182 70.3728 53.765 67.856H50.74C51.7586 70.3706 52.4538 72.08 52.4538 72.08Z" fill="#CE7A63"/>
<path d="M51.9852 70.694L54.4052 70.7116C54.4494 70.7125 54.492 70.7281 54.5263 70.756C54.5606 70.7839 54.5846 70.8225 54.5944 70.8656L55.019 72.8456C55.0297 72.8935 55.0293 72.9433 55.018 72.9911C55.0066 73.0388 54.9845 73.0834 54.9533 73.1214C54.9221 73.1593 54.8827 73.1897 54.8381 73.2101C54.7934 73.2306 54.7447 73.2406 54.6956 73.2394C53.8156 73.2174 52.5506 73.1558 51.4484 73.147C50.1592 73.147 51.2108 73.1998 49.6994 73.1888C48.7864 73.1888 48.5422 72.2692 48.9228 72.1746C50.3462 71.8138 50.861 71.4442 51.4374 70.8546C51.5131 70.7922 51.6007 70.7458 51.6948 70.7182C51.789 70.6906 51.8878 70.6824 51.9852 70.694Z" fill="#263238"/>
<path d="M69.66 29.7146C67.9 29.7146 66.4722 26.5136 66.4722 22.5646C66.4722 18.6156 67.9 15.4168 69.66 15.4168H70.8546V29.7168L69.66 29.7146Z" fill="#407BFF"/>
<path opacity="0.2" d="M69.66 29.7146C67.9 29.7146 66.4722 26.5136 66.4722 22.5646C66.4722 18.6156 67.9 15.4168 69.66 15.4168H70.8546V29.7168L69.66 29.7146Z" fill="black"/>
<path d="M70.8546 29.7124C72.6152 29.7124 74.0424 26.5122 74.0424 22.5646C74.0424 18.617 72.6152 15.4168 70.8546 15.4168C69.094 15.4168 67.6668 18.617 67.6668 22.5646C67.6668 26.5122 69.094 29.7124 70.8546 29.7124Z" fill="#407BFF"/>
<path d="M71.5278 29.7146C69.7678 29.7146 68.34 26.5136 68.34 22.5646C68.34 18.6156 69.7678 15.4168 71.5278 15.4168H72.7224V29.7168L71.5278 29.7146Z" fill="#407BFF"/>
<path opacity="0.2" d="M71.5278 29.7146C69.7678 29.7146 68.34 26.5136 68.34 22.5646C68.34 18.6156 69.7678 15.4168 71.5278 15.4168H72.7224V29.7168L71.5278 29.7146Z" fill="black"/>
<path d="M76.1786 19.5418C75.8882 18.0656 75.3888 16.8468 74.7354 16.0218L74.907 15.8854C75.5846 16.7434 76.0972 17.9952 76.3964 19.5066L76.1786 19.5418Z" fill="#407BFF"/>
<path d="M76.6802 22.5646H76.4602C76.4606 21.9812 76.4305 21.3981 76.37 20.8178L76.59 20.7936C76.6516 21.3819 76.6817 21.9731 76.6802 22.5646Z" fill="#407BFF"/>
<path d="M72.7224 29.7124C74.483 29.7124 75.9102 26.5122 75.9102 22.5646C75.9102 18.617 74.483 15.4168 72.7224 15.4168C70.9618 15.4168 69.5346 18.617 69.5346 22.5646C69.5346 26.5122 70.9618 29.7124 72.7224 29.7124Z" fill="#407BFF"/>
<path d="M73.0942 26.4696C72.1328 26.4696 71.3518 24.7096 71.3518 22.5646C71.3518 20.4196 72.1328 18.6618 73.0942 18.6618H73.7542V26.4696H73.0942Z" fill="#407BFF"/>
<path opacity="0.2" d="M73.7454 26.4696H73.0854C72.1262 26.4696 71.3452 24.7096 71.3452 22.5668C71.3452 20.424 72.1262 18.6618 73.0854 18.6618H73.7454C72.784 18.6618 72.0052 20.4086 72.0052 22.5668C72.0052 24.725 72.784 26.4696 73.7454 26.4696Z" fill="black"/>
<path opacity="0.1" d="M73.7454 26.4674C74.7065 26.4674 75.4856 24.7201 75.4856 22.5646C75.4856 20.4091 74.7065 18.6618 73.7454 18.6618C72.7843 18.6618 72.0052 20.4091 72.0052 22.5646C72.0052 24.7201 72.7843 26.4674 73.7454 26.4674Z" fill="white"/>
<path d="M85.6451 51.62L79.5974 72.5728H80.7083L86.7561 51.62H85.6451Z" fill="#263238"/>
<path d="M67.2048 72.5728H68.3158L74.3636 51.62H73.2504L67.2048 72.5728Z" fill="#263238"/>
<path d="M66.2104 70.7776C65.0294 70.7776 63.8968 70.3085 63.0618 69.4734C62.2267 68.6383 61.7576 67.5057 61.7576 66.3248C61.7576 65.1438 62.2267 64.0113 63.0618 63.1762C63.8968 62.3411 65.0294 61.872 66.2104 61.872H66.888V70.7776H66.2104Z" fill="#407BFF"/>
<path opacity="0.2" d="M66.2104 70.7776C65.0294 70.7776 63.8968 70.3085 63.0618 69.4734C62.2267 68.6383 61.7576 67.5057 61.7576 66.3248C61.7576 65.1438 62.2267 64.0113 63.0618 63.1762C63.8968 62.3411 65.0294 61.872 66.2104 61.872H66.888V70.7776H66.2104Z" fill="black"/>
<path d="M66.888 70.7776C69.3472 70.7776 71.3408 68.784 71.3408 66.3248C71.3408 63.8656 69.3472 61.872 66.888 61.872C64.4288 61.872 62.4352 63.8656 62.4352 66.3248C62.4352 68.784 64.4288 70.7776 66.888 70.7776Z" fill="#407BFF"/>
<path opacity="0.1" d="M66.2104 61.872H66.888C68.0689 61.872 69.2015 62.3411 70.0366 63.1762C70.8716 64.0113 71.3408 65.1438 71.3408 66.3248C71.3408 67.5057 70.8716 68.6383 70.0366 69.4734C69.2015 70.3085 68.0689 70.7776 66.888 70.7776H66.2104C65.0294 70.7776 63.8968 70.3085 63.0618 69.4734C62.2267 68.6383 61.7576 67.5057 61.7576 66.3248C61.7576 65.1438 62.2267 64.0113 63.0618 63.1762C63.8968 62.3411 65.0294 61.872 66.2104 61.872Z" fill="black"/>
<path d="M67.3786 70.7776C66.1976 70.7776 65.065 70.3085 64.23 69.4734C63.3949 68.6383 62.9258 67.5057 62.9258 66.3248C62.9258 65.1438 63.3949 64.0113 64.23 63.1762C65.065 62.3411 66.1976 61.872 67.3786 61.872H68.0562V70.7776H67.3786Z" fill="#407BFF"/>
<path opacity="0.2" d="M67.3786 70.7776C66.1976 70.7776 65.065 70.3085 64.23 69.4734C63.3949 68.6383 62.9258 67.5057 62.9258 66.3248C62.9258 65.1438 63.3949 64.0113 64.23 63.1762C65.065 62.3411 66.1976 61.872 67.3786 61.872H68.0562V70.7776H67.3786Z" fill="black"/>
<path d="M68.0562 70.7776C70.5154 70.7776 72.509 68.784 72.509 66.3248C72.509 63.8656 70.5154 61.872 68.0562 61.872C65.597 61.872 63.6034 63.8656 63.6034 66.3248C63.6034 68.784 65.597 70.7776 68.0562 70.7776Z" fill="#407BFF"/>
<path opacity="0.1" d="M67.3786 61.872H68.0562C69.2371 61.872 70.3697 62.3411 71.2048 63.1762C72.0398 64.0113 72.509 65.1438 72.509 66.3248C72.509 67.5057 72.0398 68.6383 71.2048 69.4734C70.3697 70.3085 69.2371 70.7776 68.0562 70.7776H67.3786C66.1976 70.7776 65.065 70.3085 64.23 69.4734C63.3949 68.6383 62.9258 67.5057 62.9258 66.3248C62.9258 65.1438 63.3949 64.0113 64.23 63.1762C65.065 62.3411 66.1976 61.872 67.3786 61.872Z" fill="black"/>
<path d="M68.758 67.3654H76.37C76.3919 67.3654 76.4135 67.3611 76.4337 67.3526C76.4538 67.3442 76.4721 67.3319 76.4875 67.3163C76.5028 67.3007 76.5149 67.2823 76.5231 67.262C76.5312 67.2417 76.5353 67.2201 76.535 67.1982V65.4514C76.5353 65.4295 76.5312 65.4079 76.5231 65.3876C76.5149 65.3673 76.5028 65.3489 76.4875 65.3333C76.4721 65.3177 76.4538 65.3054 76.4337 65.297C76.4135 65.2885 76.3919 65.2842 76.37 65.2842H68.758C68.6213 65.2842 68.486 65.3111 68.3598 65.3634C68.2335 65.4157 68.1188 65.4924 68.0222 65.589C67.9256 65.6856 67.8489 65.8003 67.7966 65.9266C67.7443 66.0528 67.7174 66.1881 67.7174 66.3248C67.7174 66.6008 67.827 66.8655 68.0222 67.0606C68.2173 67.2558 68.482 67.3654 68.758 67.3654Z" fill="#263238"/>
<path d="M77.6724 70.7776C76.4915 70.7776 75.3589 70.3085 74.5238 69.4734C73.6887 68.6383 73.2196 67.5057 73.2196 66.3248C73.2196 65.1438 73.6887 64.0113 74.5238 63.1762C75.3589 62.3411 76.4915 61.872 77.6724 61.872H78.35V70.7776H77.6724Z" fill="#407BFF"/>
<path opacity="0.2" d="M77.6724 70.7776C76.4915 70.7776 75.3589 70.3085 74.5238 69.4734C73.6887 68.6383 73.2196 67.5057 73.2196 66.3248C73.2196 65.1438 73.6887 64.0113 74.5238 63.1762C75.3589 62.3411 76.4915 61.872 77.6724 61.872H78.35V70.7776H77.6724Z" fill="black"/>
<path d="M78.35 70.7776C80.8092 70.7776 82.8028 68.784 82.8028 66.3248C82.8028 63.8656 80.8092 61.872 78.35 61.872C75.8907 61.872 73.8972 63.8656 73.8972 66.3248C73.8972 68.784 75.8907 70.7776 78.35 70.7776Z" fill="#407BFF"/>
<path d="M78.8384 70.7776C77.6574 70.7776 76.5248 70.3085 75.6898 69.4734C74.8547 68.6383 74.3856 67.5057 74.3856 66.3248C74.3856 65.1438 74.8547 64.0113 75.6898 63.1762C76.5248 62.3411 77.6574 61.872 78.8384 61.872H79.516V70.7776H78.8384Z" fill="#407BFF"/>
<path opacity="0.2" d="M78.8384 70.7776C77.6574 70.7776 76.5248 70.3085 75.6898 69.4734C74.8547 68.6383 74.3856 67.5057 74.3856 66.3248C74.3856 65.1438 74.8547 64.0113 75.6898 63.1762C76.5248 62.3411 77.6574 61.872 78.8384 61.872H79.516V70.7776H78.8384Z" fill="black"/>
<path d="M79.516 70.7776C81.9752 70.7776 83.9688 68.784 83.9688 66.3248C83.9688 63.8656 81.9752 61.872 79.516 61.872C77.0568 61.872 75.0632 63.8656 75.0632 66.3248C75.0632 68.784 77.0568 70.7776 79.516 70.7776Z" fill="#407BFF"/>
<path opacity="0.2" d="M79.2058 68.6436C78.5908 68.6436 78.001 68.3993 77.5661 67.9644C77.1313 67.5296 76.887 66.9398 76.887 66.3248C76.887 65.7098 77.1313 65.12 77.5661 64.6852C78.001 64.2503 78.5908 64.006 79.2058 64.006H79.8284V68.6436H79.2058Z" fill="black"/>
<path d="M79.8284 68.6436C81.109 68.6436 82.1472 67.6054 82.1472 66.3248C82.1472 65.0442 81.109 64.006 79.8284 64.006C78.5477 64.006 77.5096 65.0442 77.5096 66.3248C77.5096 67.6054 78.5477 68.6436 79.8284 68.6436Z" fill="#407BFF"/>
<path d="M70.3508 60.6598C69.8248 60.6722 69.3016 60.5793 68.812 60.3866C68.3224 60.1939 67.8763 59.9053 67.4999 59.5376C67.1235 59.17 66.8244 58.7309 66.6202 58.246C66.416 57.7611 66.3108 57.2402 66.3108 56.7141C66.3108 56.1879 66.416 55.6671 66.6202 55.1822C66.8244 54.6973 67.1235 54.2582 67.4999 53.8905C67.8763 53.5229 68.3224 53.2343 68.812 53.0415C69.3016 52.8488 69.8248 52.756 70.3508 52.7684H70.9514V60.6598H70.3508Z" fill="#407BFF"/>
<path opacity="0.2" d="M70.3508 60.6598C69.8248 60.6722 69.3016 60.5793 68.812 60.3866C68.3224 60.1939 67.8763 59.9053 67.4999 59.5376C67.1235 59.17 66.8244 58.7309 66.6202 58.246C66.416 57.7611 66.3108 57.2402 66.3108 56.7141C66.3108 56.1879 66.416 55.6671 66.6202 55.1822C66.8244 54.6973 67.1235 54.2582 67.4999 53.8905C67.8763 53.5229 68.3224 53.2343 68.812 53.0415C69.3016 52.8488 69.8248 52.756 70.3508 52.7684H70.9514V60.6598H70.3508Z" fill="black"/>
<path d="M74.8906 56.7669C74.9233 54.5886 73.184 52.7963 71.0057 52.7636C68.8274 52.7309 67.035 54.4702 67.0023 56.6485C66.9696 58.8268 68.709 60.6192 70.8873 60.6519C73.0656 60.6846 74.8579 58.9452 74.8906 56.7669Z" fill="#407BFF"/>
<path opacity="0.1" d="M70.3508 52.7684H70.9514C71.9817 52.7927 72.9616 53.2191 73.6818 53.9564C74.4019 54.6937 74.805 55.6835 74.805 56.7141C74.805 57.7447 74.4019 58.7344 73.6818 59.4718C72.9616 60.2091 71.9817 60.6355 70.9514 60.6598H70.3508C69.8248 60.6722 69.3016 60.5793 68.812 60.3866C68.3224 60.1939 67.8763 59.9053 67.4999 59.5376C67.1235 59.17 66.8244 58.7309 66.6202 58.246C66.416 57.7611 66.3108 57.2402 66.3108 56.7141C66.3108 56.1879 66.416 55.6671 66.6202 55.1822C66.8244 54.6973 67.1235 54.2582 67.4999 53.8905C67.8763 53.5229 68.3224 53.2343 68.812 53.0415C69.3016 52.8488 69.8248 52.756 70.3508 52.7684Z" fill="black"/>
<path d="M71.3848 60.6598C70.3544 60.6355 69.3745 60.2091 68.6544 59.4718C67.9343 58.7344 67.5311 57.7447 67.5311 56.7141C67.5311 55.6835 67.9343 54.6937 68.6544 53.9564C69.3745 53.2191 70.3544 52.7927 71.3848 52.7684H71.9854V60.6598H71.3848Z" fill="#407BFF"/>
<path opacity="0.2" d="M71.3848 60.6598C70.3544 60.6355 69.3745 60.2091 68.6544 59.4718C67.9343 58.7344 67.5311 57.7447 67.5311 56.7141C67.5311 55.6835 67.9343 54.6937 68.6544 53.9564C69.3745 53.2191 70.3544 52.7927 71.3848 52.7684H71.9854V60.6598H71.3848Z" fill="black"/>
<path d="M75.9247 56.7692C75.9574 54.5909 74.2181 52.7986 72.0398 52.7659C69.8615 52.7332 68.0691 54.4725 68.0364 56.6508C68.0037 58.8291 69.7431 60.6215 71.9214 60.6542C74.0997 60.6869 75.892 58.9475 75.9247 56.7692Z" fill="#407BFF"/>
<path opacity="0.1" d="M71.3848 52.7684H71.9854C72.5114 52.756 73.0345 52.8488 73.5241 53.0415C74.0137 53.2343 74.4598 53.5229 74.8362 53.8905C75.2126 54.2582 75.5117 54.6973 75.7159 55.1822C75.9201 55.6671 76.0253 56.1879 76.0253 56.7141C76.0253 57.2402 75.9201 57.7611 75.7159 58.246C75.5117 58.7309 75.2126 59.17 74.8362 59.5376C74.4598 59.9053 74.0137 60.1939 73.5241 60.3866C73.0345 60.5793 72.5114 60.6722 71.9854 60.6598H71.3848C70.3544 60.6355 69.3745 60.2091 68.6544 59.4718C67.9343 58.7344 67.5311 57.7447 67.5311 56.7141C67.5311 55.6835 67.9343 54.6937 68.6544 53.9564C69.3745 53.2191 70.3544 52.7927 71.3848 52.7684Z" fill="black"/>
<path d="M79.3532 57.6282H72.6013C72.3586 57.6282 72.1258 57.5318 71.9542 57.3601C71.7826 57.1885 71.6861 56.9557 71.6861 56.713C71.6861 56.4703 71.7826 56.2375 71.9542 56.0658C72.1258 55.8942 72.3586 55.7978 72.6013 55.7978H79.3532C79.3917 55.7978 79.4286 55.8131 79.4558 55.8403C79.483 55.8676 79.4984 55.9045 79.4984 55.943V57.483C79.4984 57.5215 79.483 57.5584 79.4558 57.5857C79.4286 57.6129 79.3917 57.6282 79.3532 57.6282Z" fill="#263238"/>
<path d="M80.506 60.6598C79.98 60.6722 79.4568 60.5793 78.9672 60.3866C78.4777 60.1939 78.0315 59.9053 77.6551 59.5376C77.2787 59.17 76.9796 58.7309 76.7754 58.246C76.5712 57.7611 76.466 57.2402 76.466 56.7141C76.466 56.1879 76.5712 55.6671 76.7754 55.1822C76.9796 54.6973 77.2787 54.2582 77.6551 53.8905C78.0315 53.5229 78.4777 53.2343 78.9672 53.0415C79.4568 52.8488 79.98 52.756 80.506 52.7684H81.1V60.6598H80.506Z" fill="#407BFF"/>
<path opacity="0.2" d="M80.506 60.6598C79.98 60.6722 79.4568 60.5793 78.9672 60.3866C78.4777 60.1939 78.0315 59.9053 77.6551 59.5376C77.2787 59.17 76.9796 58.7309 76.7754 58.246C76.5712 57.7611 76.466 57.2402 76.466 56.7141C76.466 56.1879 76.5712 55.6671 76.7754 55.1822C76.9796 54.6973 77.2787 54.2582 77.6551 53.8905C78.0315 53.5229 78.4777 53.2343 78.9672 53.0415C79.4568 52.8488 79.98 52.756 80.506 52.7684H81.1V60.6598H80.506Z" fill="black"/>
<path d="M81.1066 60.6598C83.2851 60.6598 85.0512 58.8937 85.0512 56.7152C85.0512 54.5367 83.2851 52.7706 81.1066 52.7706C78.928 52.7706 77.162 54.5367 77.162 56.7152C77.162 58.8937 78.928 60.6598 81.1066 60.6598Z" fill="#407BFF"/>
<path d="M81.54 60.6598C80.5096 60.6355 79.5297 60.2091 78.8096 59.4718C78.0895 58.7344 77.6863 57.7447 77.6863 56.7141C77.6863 55.6835 78.0895 54.6937 78.8096 53.9564C79.5297 53.2191 80.5096 52.7927 81.54 52.7684H82.1406V60.6598H81.54Z" fill="#407BFF"/>
<path opacity="0.2" d="M81.54 60.6598C80.5096 60.6355 79.5297 60.2091 78.8096 59.4718C78.0895 58.7344 77.6863 57.7447 77.6863 56.7141C77.6863 55.6835 78.0895 54.6937 78.8096 53.9564C79.5297 53.2191 80.5096 52.7927 81.54 52.7684H82.1406V60.6598H81.54Z" fill="black"/>
<path d="M82.1384 60.6598C84.3169 60.6598 86.083 58.8937 86.083 56.7152C86.083 54.5367 84.3169 52.7706 82.1384 52.7706C79.9598 52.7706 78.1938 54.5367 78.1938 56.7152C78.1938 58.8937 79.9598 60.6598 82.1384 60.6598Z" fill="#407BFF"/>
<path opacity="0.2" d="M81.8634 58.7678C81.588 58.7768 81.3137 58.7303 81.0566 58.6312C80.7996 58.532 80.5651 58.3822 80.3671 58.1906C80.1692 57.999 80.0117 57.7696 79.9042 57.5159C79.7967 57.2623 79.7413 56.9896 79.7413 56.7141C79.7413 56.4386 79.7967 56.1659 79.9042 55.9122C80.0117 55.6586 80.1692 55.4291 80.3671 55.2375C80.5651 55.046 80.7996 54.8961 81.0566 54.797C81.3137 54.6978 81.588 54.6514 81.8634 54.6604H82.42V58.7678H81.8634Z" fill="black"/>
<path d="M82.7566 58.4357C83.8914 58.413 84.793 57.4746 84.7703 56.3398C84.7476 55.2049 83.8092 54.3034 82.6744 54.3261C81.5395 54.3488 80.638 55.2871 80.6607 56.422C80.6834 57.5568 81.6217 58.4584 82.7566 58.4357Z" fill="#407BFF"/>
<path d="M24.2014 62.884C24.2014 61.443 22.8814 60.2726 21.2688 60.2726C19.6562 60.2726 18.3362 61.443 18.3362 62.884C18.3395 63.4653 18.5519 64.026 18.9346 64.4636C19.0116 64.5558 19.0671 64.6639 19.0972 64.7802C19.1272 64.8965 19.131 65.0181 19.1082 65.136C19.0855 65.2539 19.0368 65.3654 18.9657 65.4621C18.8945 65.5589 18.8028 65.6387 18.697 65.6956C18.5876 65.7553 18.4964 65.8435 18.4329 65.9507C18.3694 66.058 18.336 66.1804 18.3362 66.305V72.1262C18.3362 72.2826 18.3983 72.4325 18.5089 72.5431C18.6194 72.6537 18.7694 72.7158 18.9258 72.7158H23.6118C23.7682 72.7158 23.9181 72.6537 24.0287 72.5431C24.1393 72.4325 24.2014 72.2826 24.2014 72.1262V66.305C24.2016 66.1801 24.168 66.0575 24.1041 65.9502C24.0402 65.8428 23.9483 65.7549 23.8384 65.6956C23.7326 65.6387 23.6408 65.5589 23.5697 65.4621C23.4986 65.3654 23.4499 65.2539 23.4271 65.136C23.4044 65.0181 23.4082 64.8965 23.4382 64.7802C23.4682 64.6639 23.5238 64.5558 23.6008 64.4636C23.9843 64.0263 24.1975 63.4656 24.2014 62.884Z" fill="#407BFF"/>
<path opacity="0.2" d="M24.2014 62.884C24.2014 61.443 22.8814 60.2726 21.2688 60.2726C19.6562 60.2726 18.3362 61.443 18.3362 62.884C18.3395 63.4653 18.5519 64.026 18.9346 64.4636C19.0116 64.5558 19.0671 64.6639 19.0972 64.7802C19.1272 64.8965 19.131 65.0181 19.1082 65.136C19.0855 65.2539 19.0368 65.3654 18.9657 65.4621C18.8945 65.5589 18.8028 65.6387 18.697 65.6956C18.5876 65.7553 18.4964 65.8435 18.4329 65.9507C18.3694 66.058 18.336 66.1804 18.3362 66.305V72.1262C18.3362 72.2826 18.3983 72.4325 18.5089 72.5431C18.6194 72.6537 18.7694 72.7158 18.9258 72.7158H23.6118C23.7682 72.7158 23.9181 72.6537 24.0287 72.5431C24.1393 72.4325 24.2014 72.2826 24.2014 72.1262V66.305C24.2016 66.1801 24.168 66.0575 24.1041 65.9502C24.0402 65.8428 23.9483 65.7549 23.8384 65.6956C23.7326 65.6387 23.6408 65.5589 23.5697 65.4621C23.4986 65.3654 23.4499 65.2539 23.4271 65.136C23.4044 65.0181 23.4082 64.8965 23.4382 64.7802C23.4682 64.6639 23.5238 64.5558 23.6008 64.4636C23.9843 64.0263 24.1975 63.4656 24.2014 62.884Z" fill="white"/>
<path d="M22.4942 60.7764H20.0412C19.908 60.7758 19.7804 60.7225 19.6864 60.6281C19.5924 60.5336 19.5396 60.4058 19.5396 60.2726C19.5402 60.1397 19.5932 60.0125 19.6872 59.9186C19.7811 59.8246 19.9084 59.7716 20.0412 59.771H22.4942C22.6274 59.771 22.7553 59.8238 22.8497 59.9178C22.9441 60.0118 22.9974 60.1394 22.998 60.2726C22.9974 60.406 22.9442 60.5338 22.8498 60.6282C22.7555 60.7226 22.6276 60.7758 22.4942 60.7764Z" fill="#263238"/>
<path d="M21.7484 58.792H20.7892C20.6142 58.792 20.4724 58.9338 20.4724 59.1088V59.9558C20.4724 60.1308 20.6142 60.2726 20.7892 60.2726H21.7484C21.9234 60.2726 22.0652 60.1308 22.0652 59.9558V59.1088C22.0652 58.9338 21.9234 58.792 21.7484 58.792Z" fill="#263238"/>
</svg>
